<svg width="61" height="90" viewBox="0 0 61 90" fill="none" xmlns="http://www.w3.org/2000/svg">
    <path fill-rule="evenodd" clip-rule="evenodd" d="M0 30.099C0 13.502 13.502 0 30.099 0C46.696 0 60.198 13.502 60.199 30.098C60.199 45.0416 52.5743 55.7437 44.094 67.6467C39.2939 74.3841 34.2198 81.5062 30.099 90C26.2227 80.9799 20.8877 73.8751 15.7848 67.0795C7.59325 56.1705 0 46.0584 0 30.099ZM13 31C13 21.6252 20.6263 14 29.9993 14C39.3737 14 47 21.6252 47 31C47 40.3734 39.3737 48 29.9993 48C20.6263 48 13 40.3734 13 31Z" fill="#F4CF84"/>
</svg>
