<svg xmlns="http://www.w3.org/2000/svg" display="none">
    <symbol id="instagram" viewBox="0 0 32 32">
        <path d="M17.3149 4.00488C19.4043 4.00909 19.8633 4.02658 20.946 4.07598C22.2229 4.13427 23.0949 4.33703 23.858 4.6336C24.6468 4.94017 25.3158 5.35036 25.9827 6.01727C26.6497 6.68417 27.0598 7.35317 27.3664 8.14203C27.663 8.90512 27.8657 9.77712 27.924 11.054C27.9779 12.2351 27.9938 12.674 27.996 15.2971V16.703C27.9938 19.326 27.9779 19.765 27.924 20.946C27.8657 22.2229 27.663 23.0949 27.3664 23.858C27.0598 24.6469 26.6497 25.3159 25.9827 25.9828C25.3158 26.6497 24.6468 27.0599 23.858 27.3665C23.0949 27.663 22.2229 27.8658 20.946 27.9241C19.7649 27.978 19.326 27.9938 16.7029 27.996H15.297C12.674 27.9938 12.2351 27.978 11.054 27.9241C9.77708 27.8658 8.90508 27.663 8.14198 27.3665C7.35313 27.0599 6.68413 26.6497 6.01722 25.9828C5.35032 25.3159 4.94013 24.6468 4.63356 23.858C4.33698 23.0949 4.13422 22.2229 4.07594 20.946C4.02654 19.8634 4.00908 19.4043 4.00488 17.3149V14.6851C4.00908 12.5957 4.02654 12.1367 4.07594 11.054C4.13422 9.77712 4.33698 8.90512 4.63356 8.14203C4.94013 7.35317 5.35032 6.68417 6.01722 6.01727C6.68413 5.35036 7.35313 4.94017 8.14198 4.6336C8.90508 4.33703 9.77708 4.13427 11.054 4.07598C12.1367 4.02658 12.5957 4.00909 14.6851 4.00488H17.3149ZM17.2987 6.39578H14.6907C12.7274 6.39968 12.3001 6.41565 11.2629 6.46297C10.1212 6.51508 9.50117 6.70584 9.08855 6.86616C8.54196 7.07859 8.15183 7.33238 7.74209 7.74213C7.33234 8.15187 7.07855 8.542 6.86617 9.08854C6.7058 9.50121 6.51504 10.1212 6.46293 11.2629C6.41561 12.3002 6.39964 12.7274 6.39574 14.6908V17.2987C6.39964 19.2621 6.41561 19.6893 6.46293 20.7266C6.51504 21.8682 6.7058 22.4883 6.86617 22.9009C7.07855 23.4475 7.33234 23.8376 7.74209 24.2473C8.15183 24.6571 8.54196 24.9109 9.08855 25.1233C9.50117 25.2836 10.1212 25.4744 11.2629 25.5265C12.3987 25.5783 12.803 25.5925 15.2953 25.5945H16.6941C19.1864 25.5925 19.5907 25.5783 20.7265 25.5265C21.8682 25.4744 22.4882 25.2836 22.9009 25.1233C23.4474 24.9109 23.8376 24.6571 24.2473 24.2473C24.657 23.8376 24.9108 23.4475 25.1232 22.9009C25.2836 22.4883 25.4744 21.8682 25.5265 20.7265C25.5828 19.4918 25.5947 19.1214 25.5947 15.9947L25.5946 15.6325C25.5937 12.837 25.5805 12.4483 25.5265 11.2629C25.4744 10.1212 25.2836 9.50121 25.1232 9.08854C24.9108 8.542 24.657 8.15187 24.2473 7.74213C23.8376 7.33238 23.4474 7.07859 22.9009 6.86616C22.4882 6.70584 21.8682 6.51508 20.7265 6.46297C19.6893 6.41565 19.262 6.39968 17.2987 6.39578ZM16 9.60003C19.5346 9.60003 22.4 12.4654 22.4 16C22.4 19.5346 19.5346 22.4 16 22.4C12.4654 22.4 9.59998 19.5346 9.59998 16C9.59998 12.4654 12.4654 9.60003 16 9.60003ZM16 12.0013C13.7916 12.0013 12.0012 13.7916 12.0012 16C12.0012 18.2085 13.7916 19.9988 16 19.9988C18.2084 19.9988 19.9987 18.2085 19.9987 16C19.9987 13.7916 18.2084 12.0013 16 12.0013ZM22.4036 8.15689C23.1986 8.15689 23.8431 8.80136 23.8431 9.59641C23.8431 10.3915 23.1986 11.036 22.4036 11.036C21.6086 11.036 20.964 10.3915 20.964 9.59641C20.964 8.80136 21.6086 8.15689 22.4036 8.15689Z"/>
    </symbol>


    <symbol id="mail" viewBox="0 0 32 32">
        <path fill-rule="evenodd" clip-rule="evenodd"
              d="M28.5564 8.81407L27.5441 7.80176L17.9564 17.3902C16.7356 18.611 14.7495 18.611 13.5287 17.3902L3.94102 7.80176L2.92871 8.81407L10.0879 15.9725L2.92871 23.1318L3.94102 24.1433L11.0995 16.9848L12.5172 18.4018C13.3787 19.2633 14.5241 19.7379 15.7426 19.7379C16.961 19.7379 18.1064 19.2633 18.9679 18.4018L20.3856 16.9848L27.5441 24.1433L28.5564 23.1318L21.3972 15.9725L28.5564 8.81407Z"
              fill="white" stroke-width="0.7"/>
        <path fill-rule="evenodd" clip-rule="evenodd"
              d="M26.5122 26H4.97371C3.7014 26 2.66602 24.9646 2.66602 23.6923V8.30769C2.66602 7.03538 3.7014 6 4.97371 6H26.5122C27.7845 6 28.8199 7.03538 28.8199 8.30769V23.6923C28.8199 24.9646 27.7845 26 26.5122 26ZM4.97371 7.53846C4.54986 7.53846 4.20448 7.88385 4.20448 8.30769V23.6923C4.20448 24.1162 4.54986 24.4615 4.97371 24.4615H26.5122C26.936 24.4615 27.2814 24.1162 27.2814 23.6923V8.30769C27.2814 7.88385 26.936 7.53846 26.5122 7.53846H4.97371Z"
              fill="white" stroke-width="0.7"/>
    </symbol>


    <symbol id="whatsapp" viewBox="0 0 32 32">
        <path d="M4 28.0003L5.78922 21.4949C4.68514 19.5907 4.105 17.4321 4.10606 15.2186C4.10924 8.29838 9.76751 2.66699 16.7197 2.66699C20.0934 2.66805 23.2604 3.97588 25.6425 6.34877C28.0235 8.72166 29.3344 11.8757 29.3333 15.2302C29.3302 22.1515 23.6719 27.7829 16.7197 27.7829C14.6091 27.7818 12.5293 27.2551 10.687 26.2544L4 28.0003ZM10.9967 23.9818C12.7743 25.0321 14.4712 25.6612 16.7155 25.6623C22.4936 25.6623 27.2005 20.9819 27.2037 15.2281C27.2058 9.46266 22.5211 4.78866 16.7239 4.78655C10.9416 4.78655 6.23785 9.46688 6.23573 15.2197C6.23467 17.5683 6.92618 19.3268 8.08753 21.1667L7.02799 25.0173L10.9967 23.9818ZM23.0737 18.2143C22.9952 18.0834 22.7852 18.0053 22.4692 17.848C22.1542 17.6907 20.6046 16.9318 20.3151 16.8273C20.0266 16.7228 19.8166 16.67 19.6056 16.9845C19.3956 17.298 18.791 18.0053 18.6076 18.2143C18.4241 18.4233 18.2395 18.4497 17.9245 18.2924C17.6095 18.1351 16.5935 17.8047 15.3897 16.7354C14.4532 15.9037 13.82 14.8766 13.6366 14.562C13.4531 14.2485 13.6175 14.0786 13.7744 13.9224C13.9165 13.782 14.0894 13.5561 14.2475 13.3724C14.4076 13.1909 14.4596 13.06 14.5656 12.8499C14.6706 12.6409 14.6187 12.4573 14.5391 12.3C14.4596 12.1438 13.8296 10.5995 13.5676 9.97144C13.3109 9.36027 13.0511 9.4426 12.8581 9.4331L12.2535 9.42255C12.0435 9.42255 11.702 9.50066 11.4135 9.81522C11.1251 10.1298 10.3105 10.8877 10.3105 12.4319C10.3105 13.9762 11.4401 15.4677 11.597 15.6767C11.7551 15.8857 13.819 19.0545 16.9806 20.413C17.7326 20.736 18.3201 20.9292 18.7772 21.0738C19.5324 21.3123 20.2197 21.2785 20.7627 21.1983C21.3683 21.1086 22.6272 20.4394 22.8902 19.7068C23.1533 18.9732 23.1533 18.3452 23.0737 18.2143Z"/>
    </symbol>


    <symbol id="arrow-top" viewBox="0 0 28 30">
        <path d="M26 14L14 2L2 14" stroke-width="4" stroke-linecap="round" stroke-linejoin="round"/>
        <line x1="14" y1="6" x2="14" y2="28" stroke-width="4" stroke-linecap="round"/>
    </symbol>


    <symbol id="copy" viewBox="0 0 32 32">
        <path d="M25 7.69231H23V5.84615C23 4.83077 22.1 4 21 4H7C5.9 4 5 4.83077 5 5.84615V22.4615C5 23.4769 5.9 24.3077 7 24.3077H9V26.1538C9 27.1692 9.9 28 11 28H25C26.1 28 27 27.1692 27 26.1538V9.53846C27 8.52308 26.1 7.69231 25 7.69231ZM9 9.53846V22.4615H7V5.84615H21V7.69231H11C9.9 7.69231 9 8.52308 9 9.53846ZM25 26.1538H11V9.53846H25V26.1538Z"/>
    </symbol>

    <symbol id="arrow-left" viewBox="0 0 16 28">
        <path d="M14 2L2 14L14 26" stroke-width="4" stroke-linecap="round" stroke-linejoin="round"/>
    </symbol>


    <symbol id="arrow-right" viewBox="0 0 16 28">
        <path d="M2 2L14 14L2 26" stroke-width="4" stroke-linecap="round" stroke-linejoin="round"/>
    </symbol>

    <symbol id="play" viewBox="0 0 16 20">
        <path d="M0.666992 0.666748V19.3334L15.3337 10.0001L0.666992 0.666748Z"/>
    </symbol>

    <symbol id="plus" viewBox="0 0 32 32">
        <path d="M2 15.6H30M16.4118 2L16.4118 30" stroke-width="3" stroke-linecap="round"/>
    </symbol>


    <symbol id="close" viewBox="0 0 25 26">
        <path d="M1.80006 2.20018L22.7999 23.2001M22.8088 2.809L1.80888 23.8089" stroke-width="3"
              stroke-linecap="round"/>
    </symbol>

</svg>